<svg width="233" height="108" viewBox="0 0 233 108" fill="none" xmlns="http://www.w3.org/2000/svg">
<g id="Name" clip-path="url(#clip0_1_3864)">
<path id="Vector" d="M44.6547 42.5021L34.54 50.1181H41.1643L46.0841 46.4142L44.6547 42.5021Z" fill="#FFCA42" stroke="#FFCA42" stroke-miterlimit="10"/>
<path id="Vector_2" d="M31.8444 7.4082H28.9977L11.5546 20.544L9.03125 27.4331L32.6574 9.64023L31.8444 7.4082Z" fill="#FFCA42" stroke="#FFCA42" stroke-miterlimit="10"/>
<path id="Vector_3" d="M47.4375 50.1181L47.3408 49.8557L46.9902 50.1181H47.4375Z" fill="#FFCA42" stroke="#FFCA42" stroke-miterlimit="10"/>
<path id="Vector_4" d="M16.5475 7.4082L16.3027 7.59219L13.7793 14.4813L23.1687 7.4082H16.5475Z" fill="#FFCA42" stroke="#FFCA42" stroke-miterlimit="10"/>
<path id="Vector_5" d="M39.2845 27.7917L18.209 43.6633H24.8332L40.7139 31.7038L39.2845 27.7917Z" fill="#FFCA42" stroke="#FFCA42" stroke-miterlimit="10"/>
<path id="Vector_6" d="M41.9716 35.1454L30.6602 43.6633H31.1799L32.3857 47.3522L43.3979 39.0575L41.9716 35.1454Z" fill="#FFCA42" stroke="#FFCA42" stroke-miterlimit="10"/>
<path id="Vector_7" d="M20.1796 33.5894L20.5181 32.5488L2.06266 46.4477L0.714844 50.1185H3.81241L25.7583 33.5894H20.1796Z" fill="#FFCA42" stroke="#FFCA42" stroke-miterlimit="10"/>
<path id="Vector_8" d="M14.8003 50.1178L16.4896 44.96L9.63867 50.1178H14.8003Z" fill="#FFCA42" stroke="#FFCA42" stroke-miterlimit="10"/>
<path id="Vector_9" d="M24.0472 21.7045L25.0384 24.754L35.3435 16.9931L33.914 13.0811L6.80961 33.4951L4.2832 40.3842L22.4092 26.7356L24.0472 21.7045Z" fill="#FFCA42" stroke="#FFCA42" stroke-miterlimit="10"/>
<path id="Vector_10" d="M26.1875 28.2807L27.49 32.2863L38.0278 24.3506L36.6014 20.4385L26.1875 28.2807Z" fill="#FFCA42" stroke="#FFCA42" stroke-miterlimit="10"/>
<path id="Vector_11" d="M52.5721 27.2549V32.1472L71.5534 17.8562V16.0947H67.2652L52.4482 27.2549H52.5721Z" fill="#FFCA42" stroke="#FFCA42" stroke-miterlimit="10"/>
<path id="Vector_12" d="M48.3418 25.9579L65.9904 12.6652V7.8905H65.7093L48.3418 20.969V25.9579Z" fill="#FFCA42" stroke="#FFCA42" stroke-miterlimit="10"/>
<path id="Vector_13" d="M52.5723 13.3952L59.8795 7.8905H53.2583L52.5723 8.40628V13.3952Z" fill="#FFCA42" stroke="#FFCA42" stroke-miterlimit="10"/>
<path id="Vector_14" d="M53.116 41.1148L65.9898 31.4206V27.2702H71.5201L71.5534 27.2491V22.2451L52.5781 36.5331C52.5848 38.0756 52.7653 39.6125 53.116 41.1148Z" fill="#FFCA42" stroke="#FFCA42" stroke-miterlimit="10"/>
<path id="Vector_15" d="M71.6745 45.8954V40.9065L60.5596 49.2887C62.3471 49.8349 64.2053 50.1164 66.0747 50.1242L71.6745 45.8954Z" fill="#FFCA42" stroke="#FFCA42" stroke-miterlimit="10"/>
<path id="Vector_16" d="M68.4683 38.7317C67.5839 38.7317 66.9503 38.5507 66.5675 38.1887C66.1847 37.8268 65.9923 37.2436 65.9903 36.4393V35.8361L54.4492 44.5289C55.1153 45.7011 56.0116 46.727 57.0844 47.5452L68.7524 38.7317H68.4683Z" fill="#FFCA42" stroke="#FFCA42" stroke-miterlimit="10"/>
<path id="Vector_17" d="M48.3418 16.5803L48.9885 16.0947H48.3418V16.5803Z" fill="#FFCA42" stroke="#FFCA42" stroke-miterlimit="10"/>
<path id="Vector_18" d="M102.254 48.4287C105.594 46.7253 108.217 43.8908 109.655 40.4326L96.6055 50.2596C98.5735 49.9517 100.48 49.3338 102.254 48.4287Z" fill="#FFCA42" stroke="#FFCA42" stroke-miterlimit="10"/>
<path id="Vector_19" d="M93.0069 38.9584C92.3997 38.9723 91.7975 38.8462 91.2471 38.5898C90.6968 38.3335 90.2131 37.9538 89.8338 37.4804C89.6868 37.2991 89.5544 37.1065 89.4379 36.9043L79.0361 44.7466C79.9275 45.7751 80.9518 46.6809 82.0823 47.4401L93.3574 38.9493C93.2487 38.9493 93.1278 38.9584 93.0069 38.9584Z" fill="#FFCA42" stroke="#FFCA42" stroke-miterlimit="10"/>
<path id="Vector_20" d="M77.0357 41.8565L88.598 33.1486C88.598 33.1486 88.598 33.1214 88.598 33.1064C88.598 31.176 89.0211 29.7181 89.8672 28.7328C90.2454 28.2657 90.7245 27.89 91.2689 27.6341C91.8132 27.3781 92.4085 27.2484 93.0101 27.2548C93.8698 27.2436 94.709 27.5161 95.3975 28.03L105.766 20.2209C104.727 19.2724 103.567 18.4661 102.315 17.823L75.5459 37.9836C75.877 39.3321 76.3776 40.6334 77.0357 41.8565Z" fill="#FFCA42" stroke="#FFCA42" stroke-miterlimit="10"/>
<path id="Vector_21" d="M74.9964 33.1067C74.9964 33.4083 74.9964 33.71 75.0175 34.0116L98.4533 16.3574C96.6763 15.9019 94.8483 15.6749 93.0136 15.6818H92.7114L75.4497 28.6849C75.1405 30.1384 74.9886 31.6208 74.9964 33.1067Z" fill="#FFCA42" stroke="#FFCA42" stroke-miterlimit="10"/>
<path id="Vector_22" d="M111.018 33.1064C111.019 32.1259 110.954 31.1464 110.824 30.1746L85.5391 49.2192C87.1561 49.843 88.8492 50.2487 90.5737 50.4257L110.933 35.0941C110.991 34.4446 111.02 33.782 111.018 33.1064Z" fill="#FFCA42" stroke="#FFCA42" stroke-miterlimit="10"/>
<path id="Vector_23" d="M83.7597 17.7838C81.8251 18.7658 80.1167 20.1392 78.7432 21.8165L84.6663 17.3555C84.3611 17.4912 84.0589 17.633 83.7597 17.7838Z" fill="#FFCA42" stroke="#FFCA42" stroke-miterlimit="10"/>
<path id="Vector_24" d="M96.875 36.2977L109.93 26.4647C109.599 25.5568 109.186 24.6805 108.697 23.8466C108.501 23.5118 108.292 23.189 108.078 22.8723L97.2256 31.0464C97.365 31.7241 97.4318 32.4146 97.425 33.1065C97.4567 34.1962 97.2697 35.2812 96.875 36.2977Z" fill="#FFCA42" stroke="#FFCA42" stroke-miterlimit="10"/>
<path id="Vector_25" d="M115.866 50.1181L128.667 40.4782V35.4923L115.249 45.5968V50.1181H115.866Z" fill="#FFCA42" stroke="#FFCA42" stroke-miterlimit="10"/>
<path id="Vector_26" d="M115.249 22.453L123.693 16.0947H117.068L115.249 17.4671V22.453Z" fill="#FFCA42" stroke="#FFCA42" stroke-miterlimit="10"/>
<path id="Vector_27" d="M121.695 50.1185H128.32L128.667 49.8561V44.8672L121.695 50.1185Z" fill="#FFCA42" stroke="#FFCA42" stroke-miterlimit="10"/>
<path id="Vector_28" d="M151.573 36.9944L138.216 47.0536V50.1181H140.769L151.573 41.9802V36.9944Z" fill="#FFCA42" stroke="#FFCA42" stroke-miterlimit="10"/>
<path id="Vector_29" d="M174.48 30.3922C174.48 29.9699 174.48 29.5537 174.444 29.1465L161.123 39.1785V44.1614L174.48 34.1022V30.3922Z" fill="#FFCA42" stroke="#FFCA42" stroke-miterlimit="10"/>
<path id="Vector_30" d="M174.481 50.1181V47.874L171.498 50.1181H174.481Z" fill="#FFCA42" stroke="#FFCA42" stroke-miterlimit="10"/>
<path id="Vector_31" d="M165.671 50.1177L174.48 43.482V38.4961L161.123 48.5553V50.1177H165.671Z" fill="#FFCA42" stroke="#FFCA42" stroke-miterlimit="10"/>
<path id="Vector_32" d="M151.574 32.6052V32.0955C151.574 30.6477 151.997 29.5116 152.843 28.6871C153.69 27.8627 154.858 27.4505 156.349 27.4505C156.943 27.4455 157.535 27.5299 158.105 27.7008L169.891 18.827C168.776 17.8816 167.492 17.1559 166.107 16.6885L138.217 37.6756V42.6524L151.574 32.6052Z" fill="#FFCA42" stroke="#FFCA42" stroke-miterlimit="10"/>
<path id="Vector_33" d="M138.217 32.096V33.3025L161.35 15.8806C161.154 15.8806 160.96 15.8806 160.746 15.8806C158.493 15.8581 156.277 16.4528 154.339 17.5999C152.454 18.7019 150.826 20.193 149.564 21.9735C149.267 21.4663 148.936 20.9795 148.573 20.5166L137.231 29.0586C137.909 29.923 138.258 30.9991 138.217 32.096Z" fill="#FFCA42" stroke="#FFCA42" stroke-miterlimit="10"/>
<path id="Vector_34" d="M161.124 32.0964V34.811L173.816 25.2404C173.459 23.915 172.904 22.651 172.169 21.4912L160.752 30.0936C161.003 30.7313 161.129 31.4112 161.124 32.0964Z" fill="#FFCA42" stroke="#FFCA42" stroke-miterlimit="10"/>
<path id="Vector_35" d="M151.574 50.1181V46.3719L146.597 50.1181H151.574Z" fill="#FFCA42" stroke="#FFCA42" stroke-miterlimit="10"/>
<path id="Vector_36" d="M115.249 41.2077L128.748 31.0399C128.875 30.1427 129.292 29.3113 129.936 28.6721C130.782 27.8497 131.951 27.4375 133.442 27.4355H133.529L145.995 18.0489C145.693 17.8378 145.391 17.6357 145.046 17.4457C144.032 16.8804 142.942 16.4639 141.81 16.209L115.249 36.2188V41.2077Z" fill="#FFCA42" stroke="#FFCA42" stroke-miterlimit="10"/>
<path id="Vector_37" d="M115.248 31.8305L136.239 16.0223C134.974 16.2019 133.748 16.5935 132.613 17.1806C131.02 17.9966 129.658 19.1999 128.654 20.6794V16.7372L115.236 26.8447L115.248 31.8305Z" fill="#FFCA42" stroke="#FFCA42" stroke-miterlimit="10"/>
<path id="Vector_38" d="M180.282 20.3597L185.946 16.0947H180.282V20.3597Z" fill="#FFCA42" stroke="#FFCA42" stroke-miterlimit="10"/>
<path id="Vector_39" d="M180.282 39.1148L193.7 29.0074V24.0215L180.282 34.1259V39.1148Z" fill="#FFCA42" stroke="#FFCA42" stroke-miterlimit="10"/>
<path id="Vector_40" d="M193.701 38.3853V33.3994L180.283 43.5039V48.4928L193.701 38.3853Z" fill="#FFCA42" stroke="#FFCA42" stroke-miterlimit="10"/>
<path id="Vector_41" d="M179.316 6.80505C179.288 8.22044 179.764 9.59982 180.657 10.699L192.413 1.84935C191.167 0.842668 189.637 0.250894 188.037 0.157227L179.319 6.7206C179.319 6.75981 179.316 6.77791 179.316 6.80505Z" fill="#FFCA42" stroke="#FFCA42" stroke-miterlimit="10"/>
<path id="Vector_42" d="M187.051 13.3948C188.112 13.4091 189.167 13.2501 190.176 12.9242L193.724 10.2518C194.397 9.2345 194.747 8.03819 194.727 6.81933C194.736 6.11608 194.634 5.41582 194.425 4.74414L183.676 12.8398C184.759 13.2231 185.902 13.4111 187.051 13.3948Z" fill="#FFCA42" stroke="#FFCA42" stroke-miterlimit="10"/>
<path id="Vector_43" d="M190.573 50.118L193.7 47.7623V42.7734L183.948 50.118H190.573Z" fill="#FFCA42" stroke="#FFCA42" stroke-miterlimit="10"/>
<path id="Vector_44" d="M180.282 29.7372L193.7 19.6328V16.0947H191.772L180.282 24.7484V29.7372Z" fill="#FFCA42" stroke="#FFCA42" stroke-miterlimit="10"/>
<path id="Vector_45" d="M197.932 33.1064C197.932 33.8001 197.96 34.4767 198.016 35.1363L222.241 16.891C220.609 16.2645 218.895 15.8793 217.152 15.7478L198.143 30.063C198.005 31.0717 197.935 32.0883 197.932 33.1064Z" fill="#FFCA42" stroke="#FFCA42" stroke-miterlimit="10"/>
<path id="Vector_46" d="M230.016 29.7885L231.995 28.2985C231.66 26.9496 231.174 25.6425 230.548 24.4015L223.395 29.7885H230.016Z" fill="#FFCA42" stroke="#FFCA42" stroke-miterlimit="10"/>
<path id="Vector_47" d="M226.55 46.7997C227.421 46.0844 228.211 45.2752 228.904 44.3867L222.497 49.2127C223.961 48.6143 225.327 47.801 226.55 46.7997Z" fill="#FFCA42" stroke="#FFCA42" stroke-miterlimit="10"/>
<path id="Vector_48" d="M200.364 42.743L211.575 34.2975C211.545 33.9205 211.53 33.5253 211.53 33.091C211.53 31.1204 211.842 29.6324 212.467 28.627L198.717 38.9908C199.06 40.1649 199.533 41.297 200.128 42.366C200.207 42.4957 200.288 42.6163 200.364 42.743Z" fill="#FFCA42" stroke="#FFCA42" stroke-miterlimit="10"/>
<path id="Vector_49" d="M215.036 27.1339C216.466 27.1339 217.457 27.9081 218.009 29.4564L228.635 21.4634C228.01 20.7169 227.317 20.0302 226.565 19.4123C226.262 19.171 225.96 18.9418 225.658 18.7246L214.368 27.2093C214.587 27.1606 214.811 27.1353 215.036 27.1339Z" fill="#FFCA42" stroke="#FFCA42" stroke-miterlimit="10"/>
<path id="Vector_50" d="M215.036 39.0786C214.572 39.0879 214.114 38.9826 213.701 38.7721C213.288 38.5616 212.934 38.2524 212.67 37.8721L202.479 45.5455C203.435 46.5366 204.525 47.3903 205.716 48.0822L221.204 36.4153H218.118C217.593 38.1929 216.565 39.0806 215.036 39.0786Z" fill="#FFCA42" stroke="#FFCA42" stroke-miterlimit="10"/>
<path id="Vector_51" d="M214.927 50.5314L232.065 37.6218C232.158 37.2327 232.246 36.8345 232.322 36.4153H227.033L209.396 49.6868C211.192 50.2235 213.053 50.5077 214.927 50.5314Z" fill="#FFCA42" stroke="#FFCA42" stroke-miterlimit="10"/>
<path id="Vector_52" d="M206.302 17.784C203.696 19.158 201.553 21.2663 200.137 23.8467C200.041 24.0217 199.947 24.1966 199.856 24.3746L210.769 16.1553C209.212 16.4918 207.71 17.0398 206.302 17.784Z" fill="#FFCA42" stroke="#FFCA42" stroke-miterlimit="10"/>
<path id="Vector_53" d="M66.5037 72.9297L55.9629 80.8685C56.5456 82.2227 56.8646 83.6752 56.9027 85.1485L68.5254 76.4014C68.2413 75.7981 67.921 75.1949 67.5916 74.6128C67.2622 74.0306 66.8875 73.4696 66.5037 72.9297Z" fill="#FFCA42" stroke="#FFCA42" stroke-miterlimit="10"/>
<path id="Vector_54" d="M37.4925 66.7977C37.1903 66.9756 36.87 67.1596 36.5647 67.3466L33.4853 69.6691C31.9098 71.1111 30.5609 72.7818 29.4842 74.6248C28.6354 76.0629 27.9618 77.597 27.4775 79.1945L47.6162 64.0137C44.0673 64.1215 40.5959 65.0762 37.4925 66.7977Z" fill="#FFCA42" stroke="#FFCA42" stroke-miterlimit="10"/>
<path id="Vector_55" d="M42.3582 92.7981C42.067 92.4529 41.8042 92.0847 41.5725 91.6971L31.1133 99.5756C31.9393 100.63 32.8653 101.603 33.8784 102.48L44.4887 94.4902C43.672 94.0745 42.9475 93.499 42.3582 92.7981Z" fill="#FFCA42" stroke="#FFCA42" stroke-miterlimit="10"/>
<path id="Vector_56" d="M69.768 79.8496L56.311 89.9842C55.9739 91.0128 55.4437 91.9678 54.7486 92.7984C53.4129 94.3769 51.5614 95.2265 49.1942 95.3471L36.8613 104.634C37.0729 104.761 37.2784 104.894 37.4929 105.014C38.5864 105.629 39.731 106.149 40.9138 106.568L70.4752 84.3046C70.388 82.7999 70.1511 81.3076 69.768 79.8496Z" fill="#FFCA42" stroke="#FFCA42" stroke-miterlimit="10"/>
<path id="Vector_57" d="M52.95 64.385L26.5769 84.2471C26.5436 84.787 26.5225 85.3359 26.5225 85.8909C26.5222 86.9701 26.5919 88.0481 26.731 89.1183L57.6673 65.8208C56.1549 65.1642 54.5721 64.6825 52.95 64.385Z" fill="#FFCA42" stroke="#FFCA42" stroke-miterlimit="10"/>
<path id="Vector_58" d="M64.2377 70.2511C63.2659 69.284 62.1999 68.4161 61.0555 67.6602L49.457 76.4073C51.0687 76.479 52.6158 77.06 53.8752 78.0662L64.2377 70.2511Z" fill="#FFCA42" stroke="#FFCA42" stroke-miterlimit="10"/>
<path id="Vector_59" d="M40.1814 85.8904C40.1779 84.9799 40.2598 84.071 40.4261 83.1758L27.5645 92.864C27.9776 94.1738 28.5191 95.4397 29.1812 96.6434L40.3627 88.222C40.2384 87.4511 40.1778 86.6712 40.1814 85.8904Z" fill="#FFCA42" stroke="#FFCA42" stroke-miterlimit="10"/>
<path id="Vector_60" d="M70.3595 88.7804L45.3281 107.632C46.4068 107.778 47.4943 107.851 48.5828 107.849C49.7204 107.85 50.8566 107.77 51.9826 107.608L68.6853 95.0301C69.5536 93.0423 70.118 90.9355 70.3595 88.7804Z" fill="#FFCA42" stroke="#FFCA42" stroke-miterlimit="10"/>
<path id="Vector_61" d="M78.326 73.4033L75.3584 75.6384V80.6273L84.9472 73.4033H78.326Z" fill="#FFCA42" stroke="#FFCA42" stroke-miterlimit="10"/>
<path id="Vector_62" d="M88.7765 107.427V103.041L82.9531 107.427H88.7765Z" fill="#FFCA42" stroke="#FFCA42" stroke-miterlimit="10"/>
<path id="Vector_63" d="M111.682 107.427V104.543L107.854 107.427H111.682Z" fill="#FFCA42" stroke="#FFCA42" stroke-miterlimit="10"/>
<path id="Vector_64" d="M90.0454 85.5593C90.8916 84.6163 92.0601 84.1437 93.5509 84.1417C94.1255 84.1378 94.697 84.2264 95.2433 84.4041L106.902 75.6238C105.736 74.6842 104.384 74.0026 102.934 73.624L75.3584 94.3939V99.3798L88.7822 89.2724C88.8003 87.722 89.2214 86.4843 90.0454 85.5593Z" fill="#FFCA42" stroke="#FFCA42" stroke-miterlimit="10"/>
<path id="Vector_65" d="M88.7761 78.5918V74.927L75.3584 85.0315V90.0083L97.6095 73.25C95.9821 73.3939 94.4034 73.879 92.9767 74.6737C91.2828 75.6256 89.8423 76.9693 88.7761 78.5918Z" fill="#FFCA42" stroke="#FFCA42" stroke-miterlimit="10"/>
<path id="Vector_66" d="M97.8457 86.8354C98.1832 87.6494 98.3468 88.5246 98.3262 89.4053V91.4744L110.937 81.9792C110.568 80.6588 110.005 79.4004 109.266 78.2451L97.8457 86.8354Z" fill="#FFCA42" stroke="#FFCA42" stroke-miterlimit="10"/>
<path id="Vector_67" d="M111.683 87.7007C111.683 87.0612 111.66 86.4419 111.613 85.8427L98.3164 95.8506V100.836L111.683 90.7772V87.7007Z" fill="#FFCA42" stroke="#FFCA42" stroke-miterlimit="10"/>
<path id="Vector_68" d="M111.683 95.1659L98.3252 105.225V107.427H102.024L111.683 100.155V95.1659Z" fill="#FFCA42" stroke="#FFCA42" stroke-miterlimit="10"/>
<path id="Vector_69" d="M88.7761 93.6641L75.3584 103.769V107.427H77.1233L88.7761 98.6529V93.6641Z" fill="#FFCA42" stroke="#FFCA42" stroke-miterlimit="10"/>
<path id="Vector_70" d="M146.708 101.666C148.244 99.7872 149.292 97.5598 149.76 95.1807H149.017L132.232 107.828C132.516 107.828 132.798 107.849 133.088 107.849C135.768 107.88 138.421 107.313 140.854 106.19C141.033 106.109 141.202 106.018 141.377 105.931L146.134 102.35C146.321 102.127 146.517 101.901 146.708 101.666Z" fill="#FFCA42" stroke="#FFCA42" stroke-miterlimit="10"/>
<path id="Vector_71" d="M133.079 83.4778C133.308 83.4788 133.537 83.4939 133.765 83.5231L143.716 76.0337C143.203 75.6801 142.67 75.3559 142.121 75.0625C141.353 74.6638 140.557 74.323 139.739 74.043L115.732 92.1194C115.828 93.6062 116.091 95.0774 116.518 96.505L129.25 86.9163H128.908C129.311 84.624 130.701 83.4778 133.079 83.4778Z" fill="#FFCA42" stroke="#FFCA42" stroke-miterlimit="10"/>
<path id="Vector_72" d="M133.079 72.9817C131.307 72.9733 129.542 73.1923 127.826 73.6332L117.914 81.0984L117.878 81.1557C116.778 83.1673 116.084 85.3746 115.835 87.6527L135.176 73.0842C134.493 73.0209 133.798 72.9817 133.079 72.9817Z" fill="#FFCA42" stroke="#FFCA42" stroke-miterlimit="10"/>
<path id="Vector_73" d="M136.564 95.1807L123.197 105.249C123.472 105.418 123.753 105.584 124.043 105.738C125.111 106.303 126.235 106.754 127.398 107.083L143.2 95.1807H136.564Z" fill="#FFCA42" stroke="#FFCA42" stroke-miterlimit="10"/>
<path id="Vector_74" d="M139.77 92.7679H146.391L150.48 89.6883C150.463 88.1526 150.272 86.6238 149.911 85.1307L139.77 92.7679Z" fill="#FFCA42" stroke="#FFCA42" stroke-miterlimit="10"/>
<path id="Vector_75" d="M128.727 92.7679H133.94L148.648 81.6922C148.531 81.46 148.41 81.2308 148.28 81.0045C147.748 80.0713 147.12 79.1959 146.406 78.3925L136.708 85.6978C136.831 86.0883 136.891 86.4953 136.887 86.9043H135.089L117.963 99.8018C118.62 100.962 119.426 102.031 120.359 102.984L129.712 95.941C129.153 95.2232 128.824 94.1645 128.727 92.7679Z" fill="#FFCA42" stroke="#FFCA42" stroke-miterlimit="10"/>
<path id="Vector_76" d="M158.222 64.7168L158.155 65.1542L158.736 64.7168H158.222Z" fill="#FFCA42" stroke="#FFCA42" stroke-miterlimit="10"/>
<path id="Vector_77" d="M155.838 80.6667L155.562 82.5127H160.008L166.279 77.7892L169.143 70.6467L155.838 80.6667Z" fill="#FFCA42" stroke="#FFCA42" stroke-miterlimit="10"/>
<path id="Vector_78" d="M164.565 64.7168L157.418 70.1008L156.578 75.7201L171.187 64.7168H164.565Z" fill="#FFCA42" stroke="#FFCA42" stroke-miterlimit="10"/>
<path id="Vector_79" d="M190.678 85.3784C189.832 85.0366 189.409 84.5238 189.409 83.8401C189.409 83.7227 189.42 83.6056 189.442 83.4902L179.887 90.684C180.857 91.6078 182.011 92.3178 183.274 92.7682C183.377 92.8074 183.489 92.8436 183.598 92.8798L192.73 85.9998C192.032 85.8417 191.347 85.634 190.678 85.3784Z" fill="#FFCA42" stroke="#FFCA42" stroke-miterlimit="10"/>
<path id="Vector_80" d="M197.251 86.9922L187.883 94.0412C188.351 94.1437 188.835 94.2433 189.339 94.3428C190.895 94.6565 192.104 94.944 192.966 95.2054L201.902 88.4732C201.592 88.3225 201.274 88.1876 200.95 88.069C199.737 87.6462 198.502 87.2868 197.251 86.9922Z" fill="#FFCA42" stroke="#FFCA42" stroke-miterlimit="10"/>
<path id="Vector_81" d="M191.525 82.2714C192.452 82.2241 193.367 82.4897 194.124 83.0254C194.532 83.3474 194.86 83.7607 195.079 84.2319L203.879 77.5962C203.485 77.1548 203.063 76.7388 202.616 76.3505C202.023 75.8397 201.381 75.3881 200.7 75.0022L191.029 82.2925C191.194 82.2761 191.359 82.2691 191.525 82.2714Z" fill="#FFCA42" stroke="#FFCA42" stroke-miterlimit="10"/>
<path id="Vector_82" d="M206.286 85.1818L207.193 84.5061C206.943 83.1199 206.496 81.7763 205.866 80.5156L199.662 85.1818H206.286Z" fill="#FFCA42" stroke="#FFCA42" stroke-miterlimit="10"/>
<path id="Vector_83" d="M205.365 91.169C205.202 90.982 205.039 90.798 204.869 90.623L184.117 106.253L184.181 106.28C185.716 106.918 187.327 107.356 188.974 107.583L206.855 94.1159C206.584 93.035 206.075 92.0282 205.365 91.169Z" fill="#FFCA42" stroke="#FFCA42" stroke-miterlimit="10"/>
<path id="Vector_84" d="M188.684 95.6631H185.722L177.968 101.506C178.074 101.65 178.173 101.807 178.27 101.937C178.993 102.855 179.835 103.673 180.775 104.368L189.675 97.6659C189.119 97.1354 188.768 96.4263 188.684 95.6631Z" fill="#FFCA42" stroke="#FFCA42" stroke-miterlimit="10"/>
<path id="Vector_85" d="M191.827 72.9813C191.524 72.9813 191.222 72.9813 190.92 72.9994L177.369 83.2034C177.339 83.5321 177.321 83.8639 177.321 84.2017C177.299 85.4238 177.495 86.64 177.898 87.7941L196.846 73.5242C195.2 73.149 193.515 72.9668 191.827 72.9813Z" fill="#FFCA42" stroke="#FFCA42" stroke-miterlimit="10"/>
<path id="Vector_86" d="M200.439 106.461C202.633 105.546 204.315 104.285 205.486 102.676C206.434 101.387 207.018 99.8688 207.178 98.2783L194.534 107.798C196.563 107.683 198.559 107.231 200.439 106.461Z" fill="#FFCA42" stroke="#FFCA42" stroke-miterlimit="10"/>
<path id="Vector_87" d="M175.811 95.6631C175.887 96.5717 176.069 97.4685 176.351 98.3355L179.899 95.6631H175.811Z" fill="#FFCA42" stroke="#FFCA42" stroke-miterlimit="10"/>
<path id="Vector_88" d="M16.3722 7.4082L16.3027 7.5922L16.5475 7.4082H16.3722Z" fill="#FFCA42"/>
<path id="Vector_89" d="M52.5723 8.40628L53.2583 7.8905H52.5723V8.40628Z" fill="#FFCA42"/>
<path id="Vector_90" d="M16.4893 44.9603L18.2088 43.6633H16.9154L16.4893 44.9603Z" fill="#FFCA42"/>
<path id="Vector_91" d="M71.5538 27.2546V27.2305L71.5205 27.2546H71.5538Z" fill="#FFCA42"/>
<path id="Vector_92" d="M33.4854 69.6692L36.5648 67.3467C35.4682 68.0236 34.4372 68.8011 33.4854 69.6692Z" fill="#FFCA42"/>
<path id="Vector_93" d="M115.249 17.4671L117.068 16.0947H115.249V17.4671Z" fill="#FFCA42"/>
<path id="Vector_94" d="M96.1498 37.4802C96.4483 37.1248 96.6908 36.7261 96.869 36.2979L93.3574 38.9431C93.8981 38.9018 94.4247 38.7508 94.9048 38.4993C95.385 38.2477 95.8086 37.9009 96.1498 37.4802Z" fill="#FFCA42"/>
<path id="Vector_95" d="M128.667 50.1181V49.8557L128.319 50.1181H128.667Z" fill="#FFCA42"/>
<path id="Vector_96" d="M124.043 75.0927C121.459 76.4575 119.329 78.5444 117.914 81.098L127.826 73.6328C126.512 73.969 125.242 74.459 124.043 75.0927Z" fill="#FFCA42"/>
<path id="Vector_97" d="M212.467 28.6427L214.368 27.21C213.969 27.3034 213.593 27.4791 213.266 27.7258C212.939 27.9726 212.667 28.2849 212.467 28.6427Z" fill="#FFCA42"/>
<path id="Vector_98" d="M146.133 102.351L141.383 105.931C143.172 105.037 144.782 103.823 146.133 102.351Z" fill="#FFCA42"/>
<path id="Vector_99" d="M189.953 82.6635C189.817 82.7603 189.702 82.8833 189.614 83.0252C189.526 83.1672 189.468 83.3252 189.442 83.4899L191.02 82.3015C190.639 82.328 190.271 82.4527 189.953 82.6635Z" fill="#FFCA42"/>
</g>
<defs>
<clipPath id="clip0_1_3864">
<rect width="232" height="108" fill="white" transform="translate(0.5)"/>
</clipPath>
</defs>
</svg>
