<svg width="248" height="86" viewBox="0 0 248 86" fill="none" xmlns="http://www.w3.org/2000/svg">
<g id="Trees" clip-path="url(#clip0_1_3835)">
<path id="Vector" d="M4.03418 85.6229H243.089" stroke="#1B3764" stroke-width="1.5" stroke-miterlimit="10"/>
<path id="Vector_2" d="M46.1514 23.6323C46.1514 23.6323 50.2634 1.63889 77.9263 0.381836C77.9263 0.381836 87.6458 0.633247 98.8605 10.1868C98.8605 10.1868 66.1335 -3.64073 47.7314 27.9113C47.7314 27.9063 47.2728 27.0263 46.1514 23.6323Z" fill="#1B3764"/>
<path id="Vector_3" d="M52.3819 21.1989C52.3819 21.1989 68.4588 12.6963 89.6421 34.0662C89.6421 34.0662 53.7551 23.7583 47.2755 31.8035C47.273 31.8035 47.273 27.0266 52.3819 21.1989Z" fill="#1B3764"/>
<path id="Vector_4" d="M46.1515 23.6326C46.1515 23.6326 29.4067 -1.00559 2.57617 14.1469C2.57617 14.1469 31.4104 9.18157 46.0269 33.5684C46.0269 33.5634 49.0175 30.7878 46.1515 23.6326Z" fill="#1B3764"/>
<path id="Vector_5" d="M39.2975 25.2667C39.2975 25.2667 15.8713 31.0492 13.1299 52.1676C13.1299 52.1676 22.6001 36.5802 35.3101 35.826C35.3101 35.826 35.0608 28.2836 43.0357 29.5407C43.0357 29.5407 40.9997 27.1523 39.2975 25.2667Z" fill="#1B3764"/>
<path id="Vector_6" d="M40.7931 40.1003C43.6835 40.1003 46.0266 37.7365 46.0266 34.8206C46.0266 31.9048 43.6835 29.541 40.7931 29.541C37.9027 29.541 35.5596 31.9048 35.5596 34.8206C35.5596 37.7365 37.9027 40.1003 40.7931 40.1003Z" fill="#1B3764"/>
<path id="Vector_7" d="M52.3823 42.3629C55.8921 42.3629 58.7373 39.4927 58.7373 35.952C58.7373 32.4113 55.8921 29.541 52.3823 29.541C48.8726 29.541 46.0273 32.4113 46.0273 35.952C46.0273 39.4927 48.8726 42.3629 52.3823 42.3629Z" fill="#1B3764"/>
<path id="Vector_8" d="M43.9581 39.0244C43.9581 39.0244 44.9201 63.014 24.9131 85.6233H42.1638C42.1638 85.6233 52.5336 54.6822 51.148 42.3631C51.148 42.3631 46.2758 41.1061 46.0266 35.9521C46.0266 35.9521 45.3762 38.2148 43.9581 39.0244Z" fill="#1B3764"/>
<path id="Vector_9" d="M28.8984 80.7455C28.8984 80.7455 38.6054 83.0585 44.6838 77.545" stroke="white" stroke-miterlimit="10"/>
<path id="Vector_10" d="M33.7578 73.5049C33.7578 73.5049 41.5458 75.1768 46.6522 70.5861" stroke="white" stroke-miterlimit="10"/>
<path id="Vector_11" d="M37.5488 66.2543C37.5488 66.2543 45.7331 67.4158 48.3723 63.8156" stroke="white" stroke-miterlimit="10"/>
<path id="Vector_12" d="M40.2051 59.609C40.2051 59.609 44.4916 62.0879 49.4958 58.7617" stroke="white" stroke-miterlimit="10"/>
<path id="Vector_13" d="M42.1367 53.0479C42.1367 53.0479 47.3279 55.6877 50.6649 52.168" stroke="white" stroke-miterlimit="10"/>
<path id="Vector_14" d="M43.3125 47.1366C43.3125 47.1366 48.546 49.0322 51.2699 45.5703" stroke="white" stroke-miterlimit="10"/>
<path id="Vector_15" d="M201.852 23.6323C201.852 23.6323 197.74 1.63889 170.077 0.381836C170.077 0.381836 160.357 0.633247 149.143 10.1868C149.143 10.1868 181.867 -3.64073 200.272 27.9113C200.272 27.9063 200.73 27.0263 201.852 23.6323Z" fill="#1B3764"/>
<path id="Vector_16" d="M195.621 21.1989C195.621 21.1989 179.547 12.6963 158.363 34.0662C158.363 34.0662 194.25 23.7583 200.73 31.8035C200.73 31.8035 200.73 27.0266 195.621 21.1989Z" fill="#1B3764"/>
<path id="Vector_17" d="M201.852 23.6326C201.852 23.6326 218.596 -1.00559 245.424 14.1469C245.424 14.1469 216.593 9.18157 201.976 33.5684C201.976 33.5634 198.986 30.7878 201.852 23.6326Z" fill="#1B3764"/>
<path id="Vector_18" d="M208.705 25.2667C208.705 25.2667 232.131 31.0492 234.873 52.1676C234.873 52.1676 225.402 36.5802 212.692 35.826C212.692 35.826 212.942 28.2836 204.967 29.5407C204.967 29.5407 207.003 27.1523 208.705 25.2667Z" fill="#1B3764"/>
<path id="Vector_19" d="M207.206 40.1003C210.097 40.1003 212.44 37.7365 212.44 34.8206C212.44 31.9048 210.097 29.541 207.206 29.541C204.316 29.541 201.973 31.9048 201.973 34.8206C201.973 37.7365 204.316 40.1003 207.206 40.1003Z" fill="#1B3764"/>
<path id="Vector_20" d="M195.619 42.3629C199.128 42.3629 201.974 39.4927 201.974 35.952C201.974 32.4113 199.128 29.541 195.619 29.541C192.109 29.541 189.264 32.4113 189.264 35.952C189.264 39.4927 192.109 42.3629 195.619 42.3629Z" fill="#1B3764"/>
<path id="Vector_21" d="M204.044 39.0244C204.044 39.0244 203.083 63.014 223.09 85.6233H205.836C205.836 85.6233 195.469 54.6822 196.865 42.3631C196.865 42.3631 201.739 41.1061 201.988 35.9521C201.976 35.9521 202.624 38.2148 204.044 39.0244Z" fill="#1B3764"/>
<path id="Vector_22" d="M219.107 80.7455C219.107 80.7455 209.403 83.0585 203.324 77.545" stroke="white" stroke-miterlimit="10"/>
<path id="Vector_23" d="M214.245 73.5049C214.245 73.5049 206.454 75.1768 201.348 70.5861" stroke="white" stroke-miterlimit="10"/>
<path id="Vector_24" d="M210.454 66.2543C210.454 66.2543 202.27 67.4158 199.631 63.8156" stroke="white" stroke-miterlimit="10"/>
<path id="Vector_25" d="M207.798 59.609C207.798 59.609 203.511 62.0879 198.507 58.7617" stroke="white" stroke-miterlimit="10"/>
<path id="Vector_26" d="M205.864 53.0479C205.864 53.0479 200.672 55.6877 197.338 52.168" stroke="white" stroke-miterlimit="10"/>
<path id="Vector_27" d="M204.687 47.1366C204.687 47.1366 199.466 49.0322 196.732 45.5703" stroke="white" stroke-miterlimit="10"/>
<path id="Vector_28" d="M51.2773 49.6787C51.2773 49.6787 115.154 85.9095 196.725 49.6787C196.725 49.6787 122.568 75.0988 51.2773 49.6787Z" fill="#FFCA42"/>
</g>
<defs>
<clipPath id="clip0_1_3835">
<rect width="247" height="86" fill="white" transform="translate(0.5)"/>
</clipPath>
</defs>
</svg>
